<svg xmlns="http://www.w3.org/2000/svg" height="1024" preserveAspectRatio="none" style="display: block;" version="1.1" viewBox="0 0 2048 2048" width="1024">

<path d="M 1248.95 698.03 C 1250.39 694.528 1251.96 691.074 1253.63 687.676 C 1273.1 647.991 1310.63 615.6 1352.41 601.431 C 1396.73 586.411 1445.24 589.832 1487.02 610.925 C 1528.34 632.118 1559.6 668.805 1573.96 712.971 C 1588 757.354 1584.12 805.466 1563.17 847.032 C 1540.99 890.366 1504.16 918.792 1458.38 933.465 C 1472.46 985.068 1480.69 1026.42 1477.12 1080.25 C 1467.74 1221.64 1381.81 1322.36 1258.82 1383.01 C 1262.5 1375.49 1266.05 1367.9 1269.46 1360.25 C 1271.53 1354.9 1273.41 1349.49 1275.11 1344.01 C 1288.82 1299.16 1282.8 1252.17 1261.03 1210.95 C 1230.62 1153.38 1173.53 1115.43 1112.47 1096.55 C 1036.09 1073.52 953.739 1081.27 883.011 1118.17 C 783.56 1170.53 733.162 1278.28 788.593 1382.22 C 609.207 1300.8 529.976 1121.01 591.032 934.001 C 565.403 925.873 545.362 916.304 524.873 898.377 C 490.246 867.899 469.215 824.86 466.449 778.813 C 460.023 678.452 532.334 597.907 632.503 592.421 C 707.771 588.977 767.124 630.709 799.031 697.203 C 833.699 682.294 866.643 669.121 903.376 660.519 C 1020.07 633.193 1141.12 645.462 1248.95 698.03 z" fill="rgb(42,33,80)" transform="translate(0,0)"></path>
<path d="M 1218.56 960.368 C 1230.41 958.523 1257.76 960.896 1267.39 968.431 C 1285.67 982.734 1269.43 1012.48 1258.3 1026.46 C 1240.71 1048.56 1218.69 1057.64 1191.25 1060.5 C 1178.4 1061.98 1159.17 1059.53 1147.72 1053.21 C 1138.96 1048.37 1136.51 1044.48 1133.8 1035.39 C 1143.3 991.575 1174.65 965.73 1218.56 960.368 z" fill="rgb(255,248,240)" transform="translate(0,0)"></path>
<path d="M 814.147 960.41 C 836.219 958.438 858.303 964.057 876.749 976.338 C 891.618 986.219 901.116 996.948 909.377 1012.73 C 926.359 1045.17 908.137 1055.73 877.83 1060.18 C 828.107 1064.61 782.716 1037.39 774.259 986.223 C 770.901 965.907 800.038 961.734 814.147 960.41 z" fill="rgb(255,248,240)" transform="translate(0,0)"></path>
<path d="M 1012.39 1114.42 C 1020.76 1113.61 1030.51 1114.03 1038.98 1114.43 C 1134.74 1119 1245.71 1181.37 1251.59 1286.79 C 1254.8 1344.31 1220.7 1393.74 1172.08 1422.55 C 1128.32 1448.47 1087.78 1457.28 1037.45 1459.56 C 974.425 1462.67 898.434 1446.72 850.65 1404.01 C 820.345 1376.92 800.906 1344.25 797.924 1303.01 C 795.02 1262.87 809.632 1224.15 835.956 1194.15 C 881.983 1141.7 944.315 1118.9 1012.39 1114.42 z" fill="rgb(42,33,80)" transform="translate(0,0)"></path>
<path d="M 1015.07 1129.51 C 1045.04 1124.43 1073.41 1144.74 1078.26 1174.75 C 1083.11 1204.75 1062.59 1232.97 1032.55 1237.59 C 1002.82 1242.17 974.972 1221.91 970.172 1192.22 C 965.372 1162.53 985.42 1134.53 1015.07 1129.51 z" fill="rgb(255,248,240)" transform="translate(0,0)"></path>
<metadata><recraft-signature>{"signed_by": "recraft", "signature_b64": "5ywOoL47h9T4a3AOA3N6BjEfBQJQ93Hue/9UHRKCG3A8zjY7kCtT4tC2dMyG7i5SJY43mYU7AqFAihuO6i1/Dg==", "signing_algo": "Ed25519", "generation_timestamp": 1781961745, "identifier": "04f1b9cb-cc5c-465a-9fe9-0857d4ef91d1"}</recraft-signature></metadata></svg>