<svg xmlns="http://www.w3.org/2000/svg" height="1024" preserveAspectRatio="none" style="display: block;" version="1.1" viewBox="0 0 2048 2048" width="1024">

<path d="M 312.099 653.59 L 1191.94 654.056 L 1440.26 653.994 C 1488.13 653.915 1538.17 653.106 1585.84 654.009 C 1662.74 655.46 1726.77 644.122 1789.72 704.988 C 1824.26 738.14 1844.18 783.688 1845.05 831.559 C 1845.72 871.656 1845.38 913.11 1845.56 953.39 L 1845.73 1020.38 C 1845.73 1036.03 1845.7 1051.67 1845.14 1067.32 C 1843.49 1113.43 1822.94 1157 1790.87 1189.91 C 1777.54 1203.5 1762.1 1214.85 1745.15 1223.52 C 1690.93 1251.52 1644.94 1242.98 1585.79 1243.66 C 1584.59 1283.28 1586.53 1323.6 1584.07 1362.99 C 1570.83 1575.7 1385.35 1749.28 1172.39 1749.78 C 1079.61 1749.99 986.696 1749.82 893.887 1749.82 L 781.189 1749.84 C 754.762 1749.86 726.647 1750.42 700.399 1748.49 C 635.279 1743.77 572.222 1723.59 516.457 1689.63 C 488.319 1672.7 462.129 1652.73 438.362 1630.07 C 382.584 1575.37 343.04 1506.29 324.113 1430.49 C 309.024 1368.61 312.447 1329.13 312.649 1265.95 L 312.967 1129.42 L 312.429 761.525 C 312.511 725.547 312.401 689.568 312.099 653.59 z" fill="rgb(255,184,77)" transform="translate(0,0)"></path>
<path d="M 1583.05 782.156 C 1601.02 782.171 1657.94 780.647 1672.1 784.086 C 1681.19 786.33 1689.6 790.747 1696.6 796.957 C 1721.86 819.623 1716.28 854.94 1716.36 886.011 L 1716.57 970.772 L 1716.55 1030.24 C 1716.45 1057.22 1718.46 1074.4 1699.72 1095.91 C 1678.26 1116.37 1656.78 1113.62 1629.29 1113.55 C 1613.88 1113.47 1598.46 1113.55 1583.04 1113.8 L 1583.05 782.156 z" fill="rgb(255,248,240)" transform="translate(0,0)"></path>
<path d="M 312.044 551.727 C 312.01 529.841 311.579 507.551 312.336 485.926 C 315.604 392.525 401.331 322.318 492.972 328.907 C 502.423 329.586 515.49 328.903 525.228 328.911 L 631.874 328.974 L 985.755 328.796 L 1296.55 328.86 L 1390.2 328.844 C 1404.63 328.846 1431.24 328.175 1444.71 330.068 C 1476.26 334.735 1505.81 348.366 1529.84 369.34 C 1562.6 398.113 1582.57 438.735 1585.35 482.25 C 1584.31 502.566 1585.07 530.689 1585.14 551.473 L 873.711 551.428 L 508.826 551.465 C 443.47 551.498 377.313 550.987 312.044 551.727 z" fill="rgb(255,184,77)" transform="translate(0,0)"></path>
<metadata><recraft-signature>{"signed_by": "recraft", "signature_b64": "b8tp3UDNrZHvfFNApcTDkP3GtWIahWe+1Lj1oqi/WGLOsHl6Ub2PXo/5ICi27tZYz88su9EUHzUTbtpWyMSbCA==", "signing_algo": "Ed25519", "generation_timestamp": 1781961775, "identifier": "e1c8c139-5de3-4185-9c9b-0a8d44b87a4d"}</recraft-signature></metadata></svg>